<?xml version="1.0" encoding="UTF-8" standalone="no"?>
<svg width="24px" height="24px" viewBox="0 0 24 24" version="1.1" xmlns="http://www.w3.org/2000/svg" xmlns:xlink="http://www.w3.org/1999/xlink">
    <!-- Generator: Sketch 41.2 (35397) - http://www.bohemiancoding.com/sketch -->
    <title>Google Logo</title>
    <desc>Created with Sketch.</desc>
    <defs></defs>
    <g id="Page-1" stroke="none" stroke-width="1" fill="none" fill-rule="evenodd">
        <g id="Google-Logo">
            <rect id="Rectangle" fill="#FFFFFF" x="0" y="0" width="24" height="24" rx="12"></rect>
            <g transform="translate(4.000000, 4.000000)" id="Shape">
                <path d="M15.84375,6.4328124 L15.2,6.4328124 L15.2,6.4 L8,6.4 L8,9.6 L12.5218752,9.6 C11.8609376,11.4625 10.0890624,12.8 8,12.8 C5.3484376,12.8 3.2,10.6515624 3.2,8 C3.2,5.3484376 5.3484376,3.2 8,3.2 C9.2234376,3.2 10.3375,3.6609376 11.1843752,4.4156252 L13.4468752,2.1531252 C12.01875,0.8218752 10.1078124,0 8,0 C3.58125,0 0,3.58125 0,8 C0,12.41875 3.58125,16 8,16 C12.41875,16 16,12.41875 16,8 C16,7.4640624 15.9453124,6.9406252 15.84375,6.4328124 Z" fill="#FFC107"></path>
                <path d="M0.9218752,4.2765624 L3.5515624,6.2046876 C4.2625,4.44375 5.9843752,3.2 8,3.2 C9.2234376,3.2 10.3375,3.6609376 11.1843752,4.4156252 L13.4468752,2.1531252 C12.01875,0.8218752 10.1078124,0 8,0 C4.9265624,0 2.2625,1.7343752 0.9218752,4.2765624 Z" fill="#FF3D00"></path>
                <path d="M8,16 C10.0656252,16 11.94375,15.2093752 13.3640624,13.9234376 L10.8875,11.8281252 C10.0843752,12.4359376 9.0859376,12.8 8,12.8 C5.91875,12.8 4.1531252,11.4734376 3.4875,9.6218752 L0.8781252,11.63125 C2.2015624,14.2218752 4.8906252,16 8,16 Z" fill="#4CAF50"></path>
                <path d="M15.84375,6.4328124 L15.2,6.4328124 L15.2,6.4 L8,6.4 L8,9.6 L12.5218752,9.6 C12.2046876,10.4953124 11.6281252,11.2656252 10.8859376,11.8281252 L10.8875,11.8281252 L13.3640624,13.9234376 C13.1890624,14.08125 16,12 16,8 C16,7.4640624 15.9453124,6.9406252 15.84375,6.4328124 Z" fill="#1976D2"></path>
            </g>
        </g>
    </g>
</svg>