<?xml version="1.0" encoding="UTF-8" standalone="no"?>
<svg width="54px" height="54px" viewBox="0 0 54 54" version="1.1" xmlns="http://www.w3.org/2000/svg" xmlns:xlink="http://www.w3.org/1999/xlink">
    <!-- Generator: Sketch 41.2 (35397) - http://www.bohemiancoding.com/sketch -->
    <title>Logo</title>
    <desc>Created with Sketch.</desc>
    <defs></defs>
    <g id="Post" stroke="none" stroke-width="1" fill="none" fill-rule="evenodd">
        <g transform="translate(-230.000000, -9.000000)" id="Navigation" fill="#000000">
            <g>
                <path d="M235.926754,40.4558127 L235.926754,27.8735945 C235.926754,26.1364673 234.600274,24.7279064 232.963251,24.7279064 C231.32648,24.7280399 230,26.1364673 230,27.8735945 L230,40.4558127 C230,42.1933406 231.32648,43.6015009 232.963251,43.6015009 C234.600274,43.6015009 235.926754,42.1933406 235.926754,40.4558127 Z M245.475595,53.5634699 L245.475595,16.8642203 C245.475595,15.1270931 244.149367,13.7185322 242.512344,13.7185322 C240.875321,13.7185322 239.548967,15.1269596 239.548967,16.8642203 L239.548967,53.5636034 C239.548967,55.3011313 240.875447,56.7092916 242.51247,56.7092916 C244.149493,56.7092916 245.475595,55.3009978 245.475595,53.5634699 Z M255.024814,48.1458662 L255.024814,27.8735945 C255.024814,26.1364673 253.698334,24.7279064 252.061311,24.7279064 C250.424288,24.7279064 249.09806,26.1363337 249.09806,27.8735945 L249.09806,48.1457326 C249.09806,49.883127 250.424288,51.2914208 252.061311,51.2914208 C253.698334,51.2914208 255.024814,49.883127 255.024814,48.1458662 Z M281.036497,31.020084 C279.399222,31.020084 278.07312,32.4285114 278.07312,34.1657721 L278.07312,51.6426928 C278.07312,53.3800872 279.399222,54.788381 281.036497,54.788381 C282.673395,54.788381 284,53.3800872 284,51.6426928 L284,34.1657721 C284,32.4285114 282.673395,31.020084 281.036497,31.020084 Z M271.488159,9 C269.851388,9 268.525286,10.4084274 268.525286,12.1456881 L268.525286,59.8543119 C268.525286,61.5922405 269.851388,63 271.488159,63 C273.12556,63 274.451662,61.5922405 274.451662,59.8543119 L274.451662,12.1456881 C274.451536,10.4085609 273.124553,9 271.488159,9 Z M261.939192,54.7882474 C263.576593,54.7882474 264.902821,53.3799536 264.902821,51.6425593 L264.902821,21.3213687 C264.902821,19.5842415 263.576593,18.1756806 261.939192,18.1756806 C260.302421,18.1756806 258.975815,19.5841079 258.975815,21.3213687 L258.975815,51.6425593 C258.975815,53.3799536 260.302421,54.7882474 261.939192,54.7882474 Z" id="Logo"></path>
            </g>
        </g>
    </g>
</svg>