<?xml version="1.0" encoding="UTF-8" standalone="no"?>
<svg width="24px" height="24px" viewBox="0 0 24 24" version="1.1" xmlns="http://www.w3.org/2000/svg" xmlns:xlink="http://www.w3.org/1999/xlink">
    <!-- Generator: Sketch 41.2 (35397) - http://www.bohemiancoding.com/sketch -->
    <title>Search</title>
    <desc>Created with Sketch.</desc>
    <defs></defs>
    <g id="Home" stroke="none" stroke-width="1" fill="none" fill-rule="evenodd">
        <g transform="translate(-1024.000000, -24.000000)" id="Navigation" fill="#FFFFFF">
            <g>
                <g id="Nav-Items" transform="translate(885.000000, 18.000000)">
                    <path d="M139.001342,14.7750678 C139.001342,9.92853036 142.907407,6 147.726229,6 C152.545051,6 156.451115,9.92853036 156.451115,14.7750678 C156.451115,16.7528331 155.801447,18.5766972 154.703454,20.0441585 C154.758487,20.0833088 154.809495,20.1251592 154.859159,20.1737595 L162.592093,27.6852176 C163.122298,28.2009216 163.139748,29.0487281 162.620281,29.5900823 C162.104842,30.1260364 161.248461,30.1341365 160.72631,29.6278826 L152.993376,22.1164245 C152.924919,22.050274 152.865858,21.9787235 152.814851,21.9031229 C151.382628,22.9399309 149.624227,23.5501356 147.724887,23.5501356 C142.906065,23.5501356 139,19.6216053 139,14.7750678 M153.765193,14.7750678 C153.765193,11.4202919 151.067189,8.70002087 147.724887,8.70002087 C144.389295,8.70002087 141.68458,11.4135418 141.68458,14.7750678 C141.68458,18.1298437 144.382584,20.8501148 147.724887,20.8501148 C151.060478,20.8501148 153.765193,18.1365938 153.765193,14.7750678" id="Search"></path>
                </g>
            </g>
        </g>
    </g>
</svg>